<svg xmlns="http://www.w3.org/2000/svg" width="164" height="33" viewBox="0 0 164 33" fill="none">
  <path d="M22.651 20.4107L11.3248 26.8278V33L21.2918 27.3527C22.1329 26.8765 22.651 25.9956 22.651 25.0432V20.4107Z" fill="#91D200"/>
  <path d="M0 14.2385L11.3263 20.6556V26.8278L1.35921 21.1805C0.518088 20.7043 0 19.8234 0 18.871V14.2385Z" fill="#91D200"/>
  <path d="M15.1007 0L11.3263 2.13904V8.31123L13.743 6.942C14.5841 6.46582 15.1022 5.58494 15.1022 4.63257V0H15.1007Z" fill="#91D200"/>
  <path d="M18.8751 10.2053L11.3248 14.4834V20.6556L17.5159 17.1473C18.357 16.6711 18.8751 15.7903 18.8751 14.8379V10.2053Z" fill="#91D200"/>
  <path d="M3.77441 4.03315L11.3247 8.31123L11.3248 14.4834L5.13362 10.9751C4.29249 10.499 3.77441 9.61809 3.77441 8.66571V4.03315Z" fill="#91D200"/>
  <path d="M61.9447 18.515L63.1836 21.6308C61.4373 23.0639 59.0877 23.9996 56.642 23.9996C52.0386 23.9996 48.6406 20.7271 48.6406 16.5205C48.6406 12.3139 51.9746 9.01106 56.4195 9.01106C60.1985 9.01106 63.2781 11.4422 63.659 15.7416L53.1175 19.0764C53.8474 20.1353 55.0862 20.7895 56.674 20.7895C58.2618 20.7895 60.1025 20.1353 61.9447 18.515ZM52.4196 16.0535L59.4366 13.8095C58.8332 12.781 57.7543 12.1892 56.4515 12.1892C54.2603 12.1892 52.6421 13.8095 52.4196 16.0535Z" fill="#F7F7F7"/>
  <path d="M79.3539 18.515L80.5928 21.6308C78.8465 23.0639 76.4969 23.9996 74.0512 23.9996C69.4478 23.9996 66.0498 20.7271 66.0498 16.5205C66.0498 12.3139 69.3838 9.01106 73.8287 9.01106C77.6077 9.01106 80.6872 11.4422 81.0682 15.7416L70.5267 19.0764C71.2566 20.1353 72.4954 20.7895 74.0832 20.7895C75.671 20.7895 77.5132 20.1353 79.3539 18.515ZM69.8288 16.0535L76.8458 13.8095C76.2424 12.781 75.162 12.1892 73.8607 12.1892C71.6695 12.1892 70.0497 13.8095 69.8288 16.0535Z" fill="#F7F7F7"/>
  <path d="M109.878 9.20275H113.848V17.6859C113.848 21.3828 111.01 23.9996 106.809 23.9996C102.608 23.9996 99.8488 21.4133 99.8488 17.7772V9.20275H103.833V17.2903C103.833 19.1464 105.059 20.4092 106.809 20.4092C108.655 20.4092 109.878 19.1464 109.878 17.2903V9.20275Z" fill="#F7F7F7"/>
  <path d="M91.2958 9.043C91.0352 9.0217 90.7701 9.00953 90.4974 9.00953C89.3698 9.00953 88.3458 9.20274 87.4437 9.54962V2.38549H83.459V23.8079H87.4437V15.7492C87.4437 13.7258 88.9934 12.6304 90.7305 12.6304C90.8265 12.6304 90.921 12.635 91.0139 12.6426C92.4844 12.8677 93.4733 14.0529 93.4733 15.7203V23.8094H97.458V15.2334C97.458 11.8317 95.0565 9.35032 91.2958 9.043Z" fill="#F7F7F7"/>
  <path d="M137.872 23.8079H133.902V2.38549H137.872V23.8079Z" fill="#F7F7F7"/>
  <path d="M41.7546 11.1166V9.20275H37.7852V23.8094H41.7699V17.5596C41.7699 14.1213 43.9717 12.463 47.2418 12.463C47.3317 12.463 47.4277 12.4691 47.5206 12.4706V9.23317C47.5206 9.23317 43.6578 8.05411 41.7531 11.1166H41.7546Z" fill="#F7F7F7"/>
  <path d="M143.435 30.6236H147.734L156.818 9.20275H152.52L148.54 18.585L144.561 9.20275H140.263L146.391 23.6542L143.435 30.6236Z" fill="#F7F7F7"/>
  <path d="M33.6055 20.5293C32.2722 20.5293 31.4036 19.8599 31.4036 18.3386V9.20123H35.3837V5.29587H31.4036V2.38549H27.4342V18.9015C27.4342 22.3398 29.636 23.9981 32.9061 23.9981C33.6999 23.9981 34.6051 23.8976 35.3929 23.7318V20.3452C34.7696 20.4639 34.1342 20.5278 33.604 20.5278L33.6055 20.5293Z" fill="#F7F7F7"/>
  <path d="M123.876 9.00953C122.547 9.00953 121.296 9.34423 120.208 9.92996V2.38702H116.239V23.8094H120.208V23.0791C121.296 23.6649 122.547 23.9996 123.876 23.9996C128.094 23.9996 131.513 20.6434 131.513 16.5053C131.513 12.3672 128.094 9.01105 123.876 9.01105V9.00953ZM123.876 20.1033C121.851 20.1033 120.208 18.4922 120.208 16.5038C120.208 14.5154 121.851 12.9042 123.876 12.9042C125.901 12.9042 127.544 14.5154 127.544 16.5038C127.544 18.4922 125.901 20.1033 123.876 20.1033Z" fill="#F7F7F7"/>
  <path d="M159.209 9.5192V9.20275H161.102V9.5192H160.338V11.643H159.971V9.5192H159.209Z" fill="#91D200"/>
  <path d="M161.518 9.20275H161.966L162.744 11.0999H162.773L163.552 9.20275H164V11.643H163.65V9.87672H163.627L162.906 11.64H162.615L161.894 9.87672H161.871V11.6446H161.521V9.20428L161.518 9.20275Z" fill="#91D200"/>
</svg>